<svg width="33" height="25" viewBox="0 0 33 25" fill="none" xmlns="http://www.w3.org/2000/svg">
<path d="M28.049 2.05914C28.0401 2.04191 28.0254 2.0284 28.0074 2.02105C25.9327 1.06913 23.7432 0.390343 21.4939 0.00166497C21.4734 -0.00213428 21.4523 0.000606543 21.4335 0.00949763C21.4147 0.0183887 21.3992 0.0329774 21.3892 0.0511889C21.0911 0.5923 20.8204 1.14811 20.5783 1.7165C18.1536 1.34844 15.6873 1.34844 13.2626 1.7165C13.0189 1.14667 12.7439 0.590719 12.4389 0.0511889C12.4285 0.0333732 12.4129 0.0191205 12.3942 0.0102871C12.3755 0.00145381 12.3546 -0.00155073 12.3342 0.00166497C10.0846 0.389526 7.89503 1.06837 5.82056 2.0211C5.80281 2.02863 5.78782 2.04148 5.77768 2.05789C1.62915 8.25318 0.492708 14.2961 1.05021 20.2643C1.05177 20.2789 1.05627 20.2931 1.06342 20.3059C1.07057 20.3188 1.08024 20.3301 1.09184 20.3391C3.50749 22.1277 6.20943 23.493 9.08234 24.3766C9.10258 24.3827 9.12418 24.3824 9.14425 24.3758C9.16432 24.3692 9.1819 24.3567 9.19462 24.3398C9.81166 23.5002 10.3584 22.6112 10.8293 21.6817C10.8358 21.669 10.8395 21.655 10.8401 21.6407C10.8408 21.6264 10.8384 21.6122 10.8332 21.5989C10.828 21.5856 10.82 21.5735 10.8097 21.5635C10.7995 21.5535 10.7873 21.5458 10.7738 21.5409C9.91166 21.211 9.07697 20.8133 8.27761 20.3516C8.26309 20.3431 8.25089 20.3311 8.2421 20.3167C8.2333 20.3024 8.22818 20.2861 8.22719 20.2692C8.22619 20.2524 8.22935 20.2356 8.23639 20.2203C8.24343 20.205 8.25413 20.1917 8.26754 20.1815C8.43574 20.0558 8.60103 19.9263 8.76327 19.7931C8.7775 19.7814 8.79472 19.7738 8.81298 19.7714C8.83125 19.7689 8.84985 19.7716 8.86667 19.7792C14.1036 22.1692 19.7734 22.1692 24.9484 19.7792C24.9652 19.7711 24.984 19.7681 25.0026 19.7703C25.0211 19.7726 25.0386 19.78 25.0531 19.7918C25.2155 19.9258 25.3812 20.0557 25.55 20.1815C25.5635 20.1916 25.5743 20.2048 25.5815 20.2201C25.5886 20.2353 25.5919 20.2521 25.591 20.2689C25.5902 20.2857 25.5852 20.3021 25.5765 20.3165C25.5678 20.3309 25.5557 20.343 25.5412 20.3516C24.7437 20.8172 23.9082 21.2146 23.0438 21.5396C23.0304 21.5448 23.0182 21.5526 23.008 21.5628C22.9979 21.5729 22.9899 21.5851 22.9848 21.5985C22.9797 21.6119 22.9774 21.6263 22.9782 21.6406C22.979 21.655 22.9828 21.669 22.9894 21.6817C23.4682 22.606 24.0141 23.4939 24.6228 24.3383C24.6352 24.3557 24.6526 24.3687 24.6728 24.3755C24.6929 24.3823 24.7147 24.3827 24.7351 24.3764C27.6131 23.4958 30.3198 22.1304 32.7385 20.3391C32.7503 20.3305 32.7601 20.3195 32.7672 20.3068C32.7744 20.2941 32.7788 20.28 32.7801 20.2655C33.4475 13.3657 31.6627 7.3723 28.049 2.05914ZM11.6114 16.6303C10.0347 16.6303 8.73551 15.1834 8.73551 13.4064C8.73551 11.6294 10.0095 10.1824 11.6114 10.1824C13.2258 10.1824 14.5124 11.642 14.4872 13.4063C14.4872 15.1834 13.2132 16.6303 11.6114 16.6303ZM22.2443 16.6303C20.6677 16.6303 19.3685 15.1834 19.3685 13.4064C19.3685 11.6294 20.6425 10.1824 22.2443 10.1824C23.8589 10.1824 25.1454 11.642 25.1202 13.4063C25.1202 15.1834 23.8589 16.6303 22.2443 16.6303Z" fill="#C5C5C5"/>
</svg>
