<svg width="25" height="28" viewBox="0 0 25 28" fill="none" xmlns="http://www.w3.org/2000/svg">
<path d="M19.3846 4.38667C18.3383 3.17275 17.7617 1.61378 17.7621 0H13.0325V19.2889C12.996 20.3327 12.5624 21.3214 11.823 22.0468C11.0835 22.7722 10.096 23.1776 9.06824 23.1778C6.89477 23.1778 5.08865 21.3733 5.08865 19.1333C5.08865 16.4578 7.62946 14.4511 10.2468 15.2756V10.36C4.9662 9.64444 0.34375 13.8133 0.34375 19.1333C0.34375 24.3133 4.56824 28 9.05293 28C13.8591 28 17.7621 24.0333 17.7621 19.1333V9.34889C19.68 10.7487 21.9826 11.4997 24.3438 11.4956V6.68889C24.3438 6.68889 21.4662 6.82889 19.3846 4.38667Z" fill="#6F6F6F"/>
</svg>
