<svg width="35" height="24" viewBox="0 0 35 24" fill="none" xmlns="http://www.w3.org/2000/svg">
<path d="M18.0282 -0.000976562H18.2183C19.9736 0.0054297 28.8676 0.0694927 31.2657 0.71439C31.9907 0.911209 32.6513 1.29485 33.1815 1.82696C33.7117 2.35908 34.0931 3.02104 34.2873 3.74669C34.503 4.55815 34.6546 5.63227 34.7571 6.74055L34.7785 6.96263L34.8254 7.51784L34.8425 7.73993C34.9813 9.6917 34.9984 11.5196 35.0005 11.9189V12.0791C34.9984 12.4934 34.9792 14.4451 34.8254 16.4781L34.8084 16.7023L34.7891 16.9244C34.6824 18.1458 34.5243 19.3588 34.2873 20.2514C34.0936 20.9773 33.7125 21.6396 33.1822 22.1718C32.6519 22.704 31.9909 23.0874 31.2657 23.2837C28.7886 23.9499 19.3735 23.9969 18.0688 23.999H17.7656C17.1057 23.999 14.3766 23.9862 11.5152 23.888L11.1522 23.8752L10.9664 23.8666L10.6012 23.8517L10.2361 23.8367C7.86574 23.7321 5.6086 23.5634 4.56865 23.2815C3.84366 23.0855 3.1829 22.7024 2.65259 22.1705C2.12228 21.6387 1.74103 20.9769 1.54703 20.2514C1.31 19.3609 1.15198 18.1458 1.04521 16.9244L1.02813 16.7002L1.01104 16.4781C0.905654 15.0311 0.847255 13.5811 0.835938 12.1304L0.835938 11.8677C0.840208 11.4086 0.857292 9.82196 0.972604 8.07092L0.987552 7.85097L0.993959 7.73993L1.01104 7.51784L1.05802 6.96263L1.07938 6.74055C1.18188 5.63227 1.33349 4.55601 1.54917 3.74669C1.74284 3.02075 2.12394 2.35847 2.65428 1.82627C3.18461 1.29406 3.84554 0.910618 4.57079 0.71439C5.61074 0.436785 7.86788 0.265951 10.2382 0.15918L10.6012 0.144232L10.9685 0.13142L11.1522 0.125014L11.5173 0.110066C13.5496 0.0446675 15.5827 0.00836135 17.6161 0.00115896L18.0282 -0.000976562ZM14.5026 6.85373V17.1422L23.3796 12.0001L14.5026 6.85373Z" fill="#C5C5C5"/>
</svg>
