<svg width="32" height="26" viewBox="0 0 32 26" fill="none" xmlns="http://www.w3.org/2000/svg">
<path d="M17.2067 5.79904C17.2067 7.33704 16.5958 8.81205 15.5082 9.89958C14.4207 10.9871 12.9457 11.5981 11.4077 11.5981C9.86969 11.5981 8.39468 10.9871 7.30715 9.89958C6.21961 8.81205 5.60865 7.33704 5.60865 5.79904C5.60865 4.26104 6.21961 2.78603 7.30715 1.6985C8.39468 0.610969 9.86969 0 11.4077 0C12.9457 0 14.4207 0.610969 15.5082 1.6985C16.5958 2.78603 17.2067 4.26104 17.2067 5.79904ZM22.7738 23.2101C23.029 24.4673 21.9666 25.5158 20.6862 25.5158H2.12922C0.846472 25.5158 -0.213592 24.4673 0.0369263 23.2101C0.570553 20.5883 1.99384 18.2316 4.0658 16.5389C6.13775 14.8462 8.73103 13.9215 11.4065 13.9215C14.082 13.9215 16.6753 14.8462 18.7473 16.5389C20.8192 18.2316 22.2425 20.5883 22.7761 23.2101M29.9693 23.1962H26.2811C26.263 22.9703 26.232 22.7458 26.1883 22.5235C25.746 20.3346 24.8212 18.2719 23.4813 16.4855C25.1862 16.0163 27.0059 16.2132 28.5709 17.0365C30.136 17.8597 31.3292 19.2475 31.9085 20.9183C32.326 22.1291 31.252 23.1962 29.9693 23.1962ZM25.3254 13.9177C26.5558 13.9177 27.7358 13.4289 28.6058 12.5589C29.4758 11.6889 29.9646 10.5089 29.9646 9.27847C29.9646 8.04807 29.4758 6.86806 28.6058 5.99803C27.7358 5.12801 26.5558 4.63923 25.3254 4.63923C24.095 4.63923 22.915 5.12801 22.045 5.99803C21.1749 6.86806 20.6862 8.04807 20.6862 9.27847C20.6862 10.5089 21.1749 11.6889 22.045 12.5589C22.915 13.4289 24.095 13.9177 25.3254 13.9177Z" fill="#C5C5C5"/>
</svg>
