<svg width="29" height="28" viewBox="0 0 29 28" fill="none" xmlns="http://www.w3.org/2000/svg">
<path d="M8.70984 0H20.4698C24.9498 0 28.5898 3.64 28.5898 8.12V19.88C28.5898 22.0336 27.7343 24.0989 26.2116 25.6217C24.6888 27.1445 22.6234 28 20.4698 28H8.70984C4.22984 28 0.589844 24.36 0.589844 19.88V8.12C0.589844 5.96644 1.44534 3.90109 2.96814 2.37829C4.49093 0.855498 6.55629 0 8.70984 0ZM8.42984 2.8C7.09315 2.8 5.81121 3.331 4.86603 4.27618C3.92084 5.22137 3.38984 6.50331 3.38984 7.84V20.16C3.38984 22.946 5.64384 25.2 8.42984 25.2H20.7498C22.0865 25.2 23.3685 24.669 24.3137 23.7238C25.2588 22.7786 25.7898 21.4967 25.7898 20.16V7.84C25.7898 5.054 23.5358 2.8 20.7498 2.8H8.42984ZM21.9398 4.9C22.404 4.9 22.8491 5.08437 23.1773 5.41256C23.5055 5.74075 23.6898 6.18587 23.6898 6.65C23.6898 7.11413 23.5055 7.55925 23.1773 7.88744C22.8491 8.21563 22.404 8.4 21.9398 8.4C21.4757 8.4 21.0306 8.21563 20.7024 7.88744C20.3742 7.55925 20.1898 7.11413 20.1898 6.65C20.1898 6.18587 20.3742 5.74075 20.7024 5.41256C21.0306 5.08437 21.4757 4.9 21.9398 4.9ZM14.5898 7C16.4464 7 18.2268 7.7375 19.5396 9.05025C20.8523 10.363 21.5898 12.1435 21.5898 14C21.5898 15.8565 20.8523 17.637 19.5396 18.9497C18.2268 20.2625 16.4464 21 14.5898 21C12.7333 21 10.9529 20.2625 9.6401 18.9497C8.32734 17.637 7.58984 15.8565 7.58984 14C7.58984 12.1435 8.32734 10.363 9.6401 9.05025C10.9529 7.7375 12.7333 7 14.5898 7ZM14.5898 9.8C13.4759 9.8 12.4076 10.2425 11.62 11.0302C10.8323 11.8178 10.3898 12.8861 10.3898 14C10.3898 15.1139 10.8323 16.1822 11.62 16.9698C12.4076 17.7575 13.4759 18.2 14.5898 18.2C15.7038 18.2 16.772 17.7575 17.5597 16.9698C18.3473 16.1822 18.7898 15.1139 18.7898 14C18.7898 12.8861 18.3473 11.8178 17.5597 11.0302C16.772 10.2425 15.7038 9.8 14.5898 9.8Z" fill="#6F6F6F"/>
</svg>
